<svg class="dg" xmlns="http://www.w3.org/2000/svg" viewBox="0 0 514 448" width="100%" role="img" aria-label="Cold launch with an out-of-date saved copy">
<style>svg.dg{font-family:"Source Sans 3", "Helvetica Neue", Arial, sans-serif;font-size:13px}svg.dg .dg-title{font-family:Sansita, Georgia, serif;font-size:15px;font-weight:700;fill:var(--ink, #381633)}svg.dg text{fill:var(--ink, #381633)}svg.dg .dg-sub{fill:var(--ink-2, #5E4A5C);font-size:12px}svg.dg .dg-muted{fill:var(--muted, #8A7A8C);font-size:12px}svg.dg .dg-box{stroke-width:1.2}svg.dg .dg-edge{fill:none;stroke:var(--ink-2, #5E4A5C);stroke-width:1.4}svg.dg .dg-axis{stroke:var(--line, #DDD8C8);stroke-width:2}svg.dg .dg-ex{fill:var(--card, #FFFFFF);stroke:var(--line, #DDD8C8)}</style>
<defs><marker id="dg-arrow" viewBox="0 0 10 10" refX="9" refY="5" markerWidth="8" markerHeight="8" orient="auto-start-reverse"><path d="M0 0 L10 5 L0 10 z" fill="var(--ink-2, #5E4A5C)"/></marker></defs>
<text class="dg-title" x="16" y="24">Cold launch with an out-of-date saved copy</text><line class="dg-edge" x1="257" y1="100" x2="257" y2="140" marker-end="url(#dg-arrow)"/><line class="dg-edge" x1="230.9" y1="196" x2="193.6" y2="236" marker-end="url(#dg-arrow)"/><rect x="203.75" y="207" width="17" height="18" rx="4" fill="var(--ground, #F8F6EB)"/><text class="dg-muted" x="212.25" y="220" text-anchor="middle">A</text><line class="dg-edge" x1="281.1" y1="196" x2="315.4" y2="236" marker-end="url(#dg-arrow)"/><rect x="289.75" y="207" width="17" height="18" rx="4" fill="var(--ground, #F8F6EB)"/><text class="dg-muted" x="298.25" y="220" text-anchor="middle">B</text><line class="dg-edge" x1="257" y1="196" x2="257" y2="332" marker-end="url(#dg-arrow)"/><rect x="248.5" y="255" width="17" height="18" rx="4" fill="var(--ground, #F8F6EB)"/><text class="dg-muted" x="257" y="268" text-anchor="middle">C</text><rect class="dg-box" x="162" y="44" width="190" height="56" rx="8" fill="var(--card, #FFFFFF)" stroke="var(--line, #DDD8C8)"/><text x="257" y="62" text-anchor="middle">Saved copy: Pro active,</text><text x="257" y="80" text-anchor="middle">expires 11:36:56</text><rect class="dg-box" x="148" y="140" width="218" height="56" rx="8" fill="var(--card, #FFFFFF)" stroke="var(--line, #DDD8C8)"/><text x="257" y="158" text-anchor="middle">Cold launch at 11:39:04</text><text x="257" y="176" text-anchor="middle">(RevenueCat: no active Pro)</text><rect class="dg-box" x="97" y="236" width="141" height="56" rx="8" fill="var(--card, #FFFFFF)" stroke="var(--line, #DDD8C8)"/><text x="167.5" y="254" text-anchor="middle">A (today): open,</text><text x="167.5" y="272" text-anchor="middle">fetch fixes it</text><rect class="dg-box" x="262" y="236" width="155" height="56" rx="8" fill="var(--card, #FFFFFF)" stroke="var(--line, #DDD8C8)"/><text x="339.5" y="254" text-anchor="middle">B: paywall until</text><text x="339.5" y="272" text-anchor="middle">RevenueCat answers</text><rect class="dg-box" x="200.5" y="332" width="113" height="56" rx="8" fill="var(--card, #FFFFFF)" stroke="var(--line, #DDD8C8)"/><text x="257" y="350" text-anchor="middle">C: open only</text><text x="257" y="368" text-anchor="middle">when offline</text><rect class="dg-ex" x="16" y="404" width="482" height="32" rx="8"/><text class="dg-sub" x="28" y="426">Wave 6, ticket 07: the fetch after launch returned a renewal to 11:41:56.</text></svg>
